<svg width="24" height="22" viewBox="0 0 24 22" fill="none" xmlns="http://www.w3.org/2000/svg">
<g clip-path="url(#clip0_64_3)">
<path d="M8.05962 20.8482C8.54661 20.8482 8.94139 20.4414 8.94139 19.9396C8.94139 19.4378 8.54661 19.0309 8.05962 19.0309C7.57264 19.0309 7.17786 19.4378 7.17786 19.9396C7.17786 20.4414 7.57264 20.8482 8.05962 20.8482Z" stroke="#162F31" stroke-width="2" stroke-linecap="round" stroke-linejoin="round"/>
<path d="M20.4043 20.8482C20.8913 20.8482 21.2861 20.4414 21.2861 19.9396C21.2861 19.4378 20.8913 19.0309 20.4043 19.0309C19.9174 19.0309 19.5226 19.4378 19.5226 19.9396C19.5226 20.4414 19.9174 20.8482 20.4043 20.8482Z" stroke="#162F31" stroke-width="2" stroke-linecap="round" stroke-linejoin="round"/>
<path d="M1.00549 0.858032H4.53256L7.17786 16.305H21.2861" stroke="#162F31" stroke-width="2" stroke-linecap="round" stroke-linejoin="round"/>
<path d="M7.17784 12.6704H20.9246C21.0265 12.6705 21.1254 12.6342 21.2043 12.5676C21.2831 12.501 21.3372 12.4083 21.3572 12.3053L22.9444 4.12747C22.9572 4.06153 22.9556 3.99348 22.9398 3.92823C22.924 3.86298 22.8943 3.80217 22.8529 3.75017C22.8115 3.69818 22.7595 3.6563 22.7005 3.62756C22.6415 3.59882 22.577 3.58394 22.5118 3.58398H5.41431" stroke="#162F31" stroke-width="2" stroke-linecap="round" stroke-linejoin="round"/>
</g>
<defs>
<clipPath id="clip0_64_3">
<rect width="24" height="21.7063" rx="5" fill="white"/>
</clipPath>
</defs>
</svg>
