<svg width="26" height="26" viewBox="0 0 26 26" fill="none" xmlns="http://www.w3.org/2000/svg">
<path d="M4.0625 10.7656V22.75C4.0625 22.9655 4.1481 23.1722 4.30048 23.3245C4.45285 23.4769 4.65951 23.5625 4.875 23.5625H9.75V16.6562C9.75 16.333 9.8784 16.023 10.107 15.7945C10.3355 15.5659 10.6455 15.4375 10.9688 15.4375H15.0312C15.3545 15.4375 15.6645 15.5659 15.893 15.7945C16.1216 16.023 16.25 16.333 16.25 16.6562V23.5625H21.125C21.3405 23.5625 21.5472 23.4769 21.6995 23.3245C21.8519 23.1722 21.9375 22.9655 21.9375 22.75V10.7656" stroke="#55B4DC" stroke-width="2" stroke-linecap="round" stroke-linejoin="round"/>
<path d="M24.375 13L13.553 2.64065C13.2991 2.37253 12.7055 2.36948 12.447 2.64065L1.625 13M20.3125 9.08987V3.25003H17.875V6.75393" stroke="#55B4DC" stroke-width="2" stroke-linecap="round" stroke-linejoin="round"/>
</svg>
