<svg width="76" height="60" viewBox="0 0 76 60" fill="none" xmlns="http://www.w3.org/2000/svg">
<path d="M26.3517 1.56415C29.2513 0.406589 32.4571 1.20037 35.1999 2.41555C38.2604 3.85375 41.387 5.94614 42.6426 9.23105C43.2059 10.5715 42.8361 12.1356 41.8684 13.1862C41.107 13.8366 40.0239 13.6552 39.1115 13.5632C37.0403 13.1185 35.7721 11.2761 34.1628 10.0693C32.7676 8.84118 31.2823 7.51162 29.3938 7.17192C27.709 6.89357 26.2456 8.00841 25.1657 9.16483C23.5406 11.1695 22.5141 13.5786 21.7137 16.011C21.1937 18.1323 20.0871 20.1565 20.2204 22.3954C20.0622 20.3302 19.4731 18.3201 19.4166 16.2449C19.3111 13.5692 19.6505 10.8785 20.3225 8.29136C21.5549 5.51872 23.4595 2.77446 26.3517 1.56415Z" fill="#55B4DC" stroke="#55B4DC" stroke-width="0.1" stroke-miterlimit="10"/>
<path d="M26.3517 1.56415C29.2513 0.406589 32.4571 1.20037 35.1999 2.41555C38.2604 3.85375 41.387 5.94614 42.6426 9.23105C43.2059 10.5715 42.8361 12.1356 41.8684 13.1862C41.107 13.8366 40.0239 13.6552 39.1115 13.5632C37.0403 13.1185 35.7721 11.2761 34.1628 10.0693C32.7676 8.84118 31.2823 7.51162 29.3938 7.17192C27.709 6.89357 26.2456 8.00841 25.1657 9.16483C23.5406 11.1695 22.5141 13.5786 21.7137 16.011C21.1937 18.1323 20.0871 20.1565 20.2204 22.3954C20.0622 20.3302 19.4731 18.3201 19.4166 16.2449C19.3111 13.5692 19.6505 10.8785 20.3225 8.29136C21.5549 5.51872 23.4595 2.77446 26.3517 1.56415Z" fill="#55B4DC"/>
<path d="M52.7909 3.33747C54.8905 3.0938 57.0969 3.9174 58.5059 5.49808C59.4617 6.67456 60.1035 8.15662 60.0932 9.68771C59.908 11.5493 58.9712 13.3889 57.408 14.4587C55.5653 15.7648 53.0463 16.0368 50.9729 15.1315C47.8924 13.9611 46.0984 9.99559 47.6817 7.00021C48.5726 4.96258 50.6266 3.63675 52.7909 3.33747Z" fill="#55B4DC" stroke="#55B4DC" stroke-width="0.1" stroke-miterlimit="10"/>
<path d="M52.7909 3.33747C54.8905 3.0938 57.0969 3.9174 58.5059 5.49808C59.4617 6.67456 60.1035 8.15662 60.0932 9.68771C59.908 11.5493 58.9712 13.3889 57.408 14.4587C55.5653 15.7648 53.0463 16.0368 50.9729 15.1315C47.8924 13.9611 46.0984 9.99559 47.6817 7.00021C48.5726 4.96258 50.6266 3.63675 52.7909 3.33747Z" fill="#55B4DC"/>
<path d="M74.6435 14.1588C74.7676 14.152 74.8932 14.1488 75.0199 14.1511C74.9672 15.2553 75.255 16.3587 75.0726 17.4587C74.7811 19.3495 74.0197 21.1254 73.195 22.8377C71.3833 26.8791 67.9573 30.2165 63.8035 31.7871C61.8966 32.4596 59.6342 32.408 57.9159 31.2599C55.137 29.4456 52.9514 26.6781 51.9957 23.4838C51.3905 21.7587 51.3696 19.6869 52.4099 18.1234C52.9302 17.4383 53.6329 16.6732 54.5728 16.7245C55.5441 16.8142 56.4121 17.3976 56.9986 18.1578C58.3795 19.9704 58.6684 22.328 59.8068 24.2633C60.7591 25.5114 62.2991 26.9941 64.0016 26.2639C66.0533 25.3965 67.7799 23.921 69.4482 22.4742C71.5575 20.6602 73.0256 18.2387 74.1975 15.7453C74.4328 15.245 74.5971 14.7118 74.6435 14.1588Z" fill="#55B4DC" stroke="#55B4DC" stroke-width="0.1" stroke-miterlimit="10"/>
<path d="M74.6435 14.1588C74.7676 14.152 74.8932 14.1488 75.0199 14.1511C74.9672 15.2553 75.255 16.3587 75.0726 17.4587C74.7811 19.3495 74.0197 21.1254 73.195 22.8377C71.3833 26.8791 67.9573 30.2165 63.8035 31.7871C61.8966 32.4596 59.6342 32.408 57.9159 31.2599C55.137 29.4456 52.9514 26.6781 51.9957 23.4838C51.3905 21.7587 51.3696 19.6869 52.4099 18.1234C52.9302 17.4383 53.6329 16.6732 54.5728 16.7245C55.5441 16.8142 56.4121 17.3976 56.9986 18.1578C58.3795 19.9704 58.6684 22.328 59.8068 24.2633C60.7591 25.5114 62.2991 26.9941 64.0016 26.2639C66.0533 25.3965 67.7799 23.921 69.4482 22.4742C71.5575 20.6602 73.0256 18.2387 74.1975 15.7453C74.4328 15.245 74.5971 14.7118 74.6435 14.1588Z" fill="#55B4DC"/>
<path d="M23.3878 25.7482C24.6081 24.7148 26.4104 24.8151 27.8297 25.332C29.2556 25.9383 30.7577 26.4067 32.0595 27.269C34.0808 28.5641 36.0123 30.0164 37.7403 31.6848C39.6928 33.2632 41.506 35.0239 43.0597 36.9996C44.2064 38.3484 45.4035 39.9242 45.3132 41.7921C44.4661 44.5137 42.1341 46.5034 39.708 47.8353C36.4905 49.4713 32.9017 50.1203 29.4628 51.1242C27.9756 51.6044 26.4144 51.7793 24.8679 51.9458C23.1166 52.0404 21.3559 52.4016 19.6058 52.0917C20.7273 51.2767 22.0849 50.9141 23.3176 50.3104C26.857 48.7824 30.1884 46.8234 33.637 45.1065C35.0979 44.3993 36.5286 43.498 37.364 42.0581C37.3192 41.7416 37.2757 41.426 37.2335 41.1112C36.2517 40.1174 35.0397 39.407 33.7904 38.805C32.3327 40.0099 30.6522 40.9263 29.3095 42.2714C25.6247 45.0142 21.5514 47.1645 17.6272 49.5372C12.3445 52.5062 7.3468 55.9675 1.96377 58.7613C1.65016 58.8737 1.32881 58.9611 1 59.0239C3.06715 56.7716 5.47429 54.8546 7.50963 52.5713C10.4468 49.4948 13.384 46.4166 16.4485 43.4656C19.6849 40.3493 22.8305 37.1412 25.8299 33.7955C24.5649 32.6259 22.9314 31.5483 22.547 29.7547C22.1815 28.3981 22.3965 26.7957 23.3878 25.7482Z" fill="#55B4DC" stroke="#55B4DC" stroke-width="0.1" stroke-miterlimit="10"/>
<path d="M23.3878 25.7482C24.6081 24.7148 26.4104 24.8151 27.8297 25.332C29.2556 25.9383 30.7577 26.4067 32.0595 27.269C34.0808 28.5641 36.0123 30.0164 37.7403 31.6848C39.6928 33.2632 41.506 35.0239 43.0597 36.9996C44.2064 38.3484 45.4035 39.9242 45.3132 41.7921C44.4661 44.5137 42.1341 46.5034 39.708 47.8353C36.4905 49.4713 32.9017 50.1203 29.4628 51.1242C27.9756 51.6044 26.4144 51.7793 24.8679 51.9458C23.1166 52.0404 21.3559 52.4016 19.6058 52.0917C20.7273 51.2767 22.0849 50.9141 23.3176 50.3104C26.857 48.7824 30.1884 46.8234 33.637 45.1065C35.0979 44.3993 36.5286 43.498 37.364 42.0581C37.3192 41.7416 37.2757 41.426 37.2335 41.1112C36.2517 40.1174 35.0397 39.407 33.7904 38.805C32.3327 40.0099 30.6522 40.9263 29.3095 42.2714C25.6247 45.0142 21.5514 47.1645 17.6272 49.5372C12.3445 52.5062 7.3468 55.9675 1.96377 58.7613C1.65016 58.8737 1.32881 58.9611 1 59.0239C3.06715 56.7716 5.47429 54.8546 7.50963 52.5713C10.4468 49.4948 13.384 46.4166 16.4485 43.4656C19.6849 40.3493 22.8305 37.1412 25.8299 33.7955C24.5649 32.6259 22.9314 31.5483 22.547 29.7547C22.1815 28.3981 22.3965 26.7957 23.3878 25.7482Z" fill="#55B4DC"/>
</svg>
