<svg width="87" height="87" viewBox="0 0 87 87" fill="none" xmlns="http://www.w3.org/2000/svg">
<path d="M31.3517 14.5641C34.2513 13.4066 37.4571 14.2004 40.1999 15.4155C43.2604 16.8538 46.387 18.9461 47.6426 22.231C48.2059 23.5715 47.8361 25.1356 46.8683 26.1862C46.107 26.8366 45.0239 26.6552 44.1115 26.5632C42.0403 26.1185 40.7721 24.2761 39.1627 23.0693C37.7675 21.8412 36.2823 20.5116 34.3938 20.1719C32.709 19.8936 31.2456 21.0084 30.1657 22.1648C28.5406 24.1695 27.514 26.5786 26.7137 29.011C26.1937 31.1323 25.0871 33.1565 25.2204 35.3954C25.0622 33.3302 24.4731 31.3201 24.4166 29.2449C24.3111 26.5692 24.6505 23.8785 25.3225 21.2914C26.5549 18.5187 28.4595 15.7745 31.3517 14.5641Z" fill="white" stroke="white" stroke-width="0.1" stroke-miterlimit="10"/>
<path d="M31.3517 14.5641C34.2513 13.4066 37.4571 14.2004 40.1999 15.4155C43.2604 16.8538 46.387 18.9461 47.6426 22.231C48.2059 23.5715 47.8361 25.1356 46.8683 26.1862C46.107 26.8366 45.0239 26.6552 44.1115 26.5632C42.0403 26.1185 40.7721 24.2761 39.1627 23.0693C37.7675 21.8412 36.2823 20.5116 34.3938 20.1719C32.709 19.8936 31.2456 21.0084 30.1657 22.1648C28.5406 24.1695 27.514 26.5786 26.7137 29.011C26.1937 31.1323 25.0871 33.1565 25.2204 35.3954C25.0622 33.3302 24.4731 31.3201 24.4166 29.2449C24.3111 26.5692 24.6505 23.8785 25.3225 21.2914C26.5549 18.5187 28.4595 15.7745 31.3517 14.5641Z" fill="white"/>
<path d="M57.7909 16.3375C59.8905 16.0938 62.0969 16.9174 63.5059 18.4981C64.4617 19.6746 65.1035 21.1566 65.0932 22.6877C64.908 24.5493 63.9712 26.3889 62.408 27.4587C60.5653 28.7648 58.0463 29.0368 55.9729 28.1315C52.8924 26.9611 51.0984 22.9956 52.6817 20.0002C53.5726 17.9626 55.6266 16.6367 57.7909 16.3375Z" fill="white" stroke="white" stroke-width="0.1" stroke-miterlimit="10"/>
<path d="M57.7909 16.3375C59.8905 16.0938 62.0969 16.9174 63.5059 18.4981C64.4617 19.6746 65.1035 21.1566 65.0932 22.6877C64.908 24.5493 63.9712 26.3889 62.408 27.4587C60.5653 28.7648 58.0463 29.0368 55.9729 28.1315C52.8924 26.9611 51.0984 22.9956 52.6817 20.0002C53.5726 17.9626 55.6266 16.6367 57.7909 16.3375Z" fill="white"/>
<path d="M79.6435 27.1588C79.7677 27.152 79.8932 27.1488 80.0199 27.1511C79.9672 28.2553 80.255 29.3587 80.0727 30.4587C79.7811 32.3495 79.0197 34.1254 78.195 35.8377C76.3833 39.8791 72.9573 43.2165 68.8035 44.7871C66.8966 45.4596 64.6342 45.408 62.9159 44.2599C60.137 42.4456 57.9515 39.6781 56.9957 36.4838C56.3906 34.7587 56.3696 32.6869 57.4099 31.1234C57.9302 30.4383 58.6329 29.6732 59.5728 29.7245C60.5441 29.8142 61.4121 30.3976 61.9986 31.1578C63.3795 32.9704 63.6685 35.328 64.8068 37.2633C65.7591 38.5114 67.2991 39.9941 69.0016 39.2639C71.0533 38.3965 72.7799 36.921 74.4483 35.4742C76.5576 33.6602 78.0256 31.2387 79.1975 28.7453C79.4328 28.245 79.5971 27.7118 79.6435 27.1588Z" fill="white" stroke="white" stroke-width="0.1" stroke-miterlimit="10"/>
<path d="M79.6435 27.1588C79.7677 27.152 79.8932 27.1488 80.0199 27.1511C79.9672 28.2553 80.255 29.3587 80.0727 30.4587C79.7811 32.3495 79.0197 34.1254 78.195 35.8377C76.3833 39.8791 72.9573 43.2165 68.8035 44.7871C66.8966 45.4596 64.6342 45.408 62.9159 44.2599C60.137 42.4456 57.9515 39.6781 56.9957 36.4838C56.3906 34.7587 56.3696 32.6869 57.4099 31.1234C57.9302 30.4383 58.6329 29.6732 59.5728 29.7245C60.5441 29.8142 61.4121 30.3976 61.9986 31.1578C63.3795 32.9704 63.6685 35.328 64.8068 37.2633C65.7591 38.5114 67.2991 39.9941 69.0016 39.2639C71.0533 38.3965 72.7799 36.921 74.4483 35.4742C76.5576 33.6602 78.0256 31.2387 79.1975 28.7453C79.4328 28.245 79.5971 27.7118 79.6435 27.1588Z" fill="white"/>
<path d="M28.3878 38.7482C29.6081 37.7148 31.4104 37.8151 32.8297 38.332C34.2556 38.9383 35.7577 39.4067 37.0595 40.269C39.0808 41.5641 41.0123 43.0164 42.7403 44.6848C44.6928 46.2632 46.506 48.0239 48.0597 49.9996C49.2064 51.3484 50.4035 52.9242 50.3132 54.7921C49.4661 57.5137 47.1341 59.5034 44.708 60.8353C41.4905 62.4713 37.9017 63.1203 34.4628 64.1242C32.9756 64.6044 31.4144 64.7793 29.8679 64.9458C28.1166 65.0404 26.3559 65.4016 24.6058 65.0917C25.7273 64.2767 27.0849 63.9141 28.3176 63.3104C31.857 61.7824 35.1884 59.8234 38.637 58.1065C40.0979 57.3993 41.5286 56.498 42.364 55.0581C42.3192 54.7416 42.2757 54.426 42.2335 54.1112C41.2517 53.1174 40.0397 52.407 38.7904 51.805C37.3327 53.0099 35.6522 53.9263 34.3095 55.2714C30.6247 58.0142 26.5514 60.1645 22.6272 62.5372C17.3445 65.5062 12.3468 68.9675 6.96377 71.7613C6.65016 71.8737 6.32881 71.9611 6 72.0239C8.06715 69.7716 10.4743 67.8546 12.5096 65.5713C15.4468 62.4948 18.384 59.4166 21.4485 56.4656C24.6849 53.3493 27.8305 50.1412 30.8299 46.7955C29.5649 45.6259 27.9314 44.5483 27.547 42.7547C27.1815 41.3981 27.3965 39.7957 28.3878 38.7482Z" fill="white" stroke="white" stroke-width="0.1" stroke-miterlimit="10"/>
<path d="M28.3878 38.7482C29.6081 37.7148 31.4104 37.8151 32.8297 38.332C34.2556 38.9383 35.7577 39.4067 37.0595 40.269C39.0808 41.5641 41.0123 43.0164 42.7403 44.6848C44.6928 46.2632 46.506 48.0239 48.0597 49.9996C49.2064 51.3484 50.4035 52.9242 50.3132 54.7921C49.4661 57.5137 47.1341 59.5034 44.708 60.8353C41.4905 62.4713 37.9017 63.1203 34.4628 64.1242C32.9756 64.6044 31.4144 64.7793 29.8679 64.9458C28.1166 65.0404 26.3559 65.4016 24.6058 65.0917C25.7273 64.2767 27.0849 63.9141 28.3176 63.3104C31.857 61.7824 35.1884 59.8234 38.637 58.1065C40.0979 57.3993 41.5286 56.498 42.364 55.0581C42.3192 54.7416 42.2757 54.426 42.2335 54.1112C41.2517 53.1174 40.0397 52.407 38.7904 51.805C37.3327 53.0099 35.6522 53.9263 34.3095 55.2714C30.6247 58.0142 26.5514 60.1645 22.6272 62.5372C17.3445 65.5062 12.3468 68.9675 6.96377 71.7613C6.65016 71.8737 6.32881 71.9611 6 72.0239C8.06715 69.7716 10.4743 67.8546 12.5096 65.5713C15.4468 62.4948 18.384 59.4166 21.4485 56.4656C24.6849 53.3493 27.8305 50.1412 30.8299 46.7955C29.5649 45.6259 27.9314 44.5483 27.547 42.7547C27.1815 41.3981 27.3965 39.7957 28.3878 38.7482Z" fill="white"/>
</svg>
